<svg id="Capa_1" enable-background="new 0 0 511.891 511.891" height="512" viewBox="0 0 511.891 511.891" width="512" xmlns="http://www.w3.org/2000/svg"><g><g><path d="m436.215 75.495c-49.801-49.801-114.901-75.399-180.3-75.399-45.601 0-90.901 12.999-131.1 37.299l.899 17.1c-28.499 18.6-53.099 43.2-71.699 72.001l-16.501-1.8c-24.265 40.154-37.443 85.619-37.514 131.099-.217 139.672 116.607 256 255.915 256 45.601 0 90.901-13.001 131.1-37.601l-1.199-16.8c28.5-18.6 52.8-42.9 71.4-71.4l17.399.901c24.142-40.155 37.248-85.62 37.276-131.1.04-65.29-25.81-130.612-75.676-180.3zm-116.622 243.669c-17.07 17.174-39.686 26.632-63.678 26.632-24.383 0-47.206-9.674-64.266-27.24-16.354-16.84-25.734-39.715-25.734-62.76 0-23.906 9.397-46.47 26.461-63.535 17.065-17.066 39.63-26.465 63.539-26.465 23.685 0 46.145 9.325 63.242 26.256 17.255 17.088 26.758 39.726 26.758 63.744 0 23.786-9.348 46.291-26.322 63.368z" fill="#edf5ff"/><path d="m436.215 75.495c-49.801-49.801-114.901-75.399-180.3-75.399v165.7c23.685 0 46.145 9.325 63.242 26.256 17.255 17.088 26.758 39.726 26.758 63.744 0 23.787-9.348 46.292-26.322 63.368-17.07 17.174-39.686 26.632-63.678 26.632v166c45.601 0 90.901-13.001 131.1-37.601l-1.199-16.8c28.5-18.6 52.8-42.9 71.4-71.4l17.399.901c59.799-99.463 47.868-225.439-38.4-311.401z" fill="#d5e8fe"/><path d="m330.014 181.694c-20.4-20.4-47.399-30.899-74.099-30.899-18.9 0-37.5 5.1-54 15-7.2 4.499-13.801 9.6-20.099 15.899-6 6-11.4 12.9-15.901 20.102-9.6 16.199-15 34.499-15 54 0 28.2 11.1 54.3 30.901 74.099 20.4 20.7 47.098 30.901 74.099 30.901 18.9 0 37.5-5.101 54-15 7.2-4.501 13.801-9.6 20.099-15.901 6-6 11.4-12.9 15.901-20.1 9.6-16.199 15-34.5 15-54 0-28.2-11.1-54.299-30.901-74.101zm-74.099 149.101c-42.68 0-75-35.508-75-75 0-41.143 33.848-75 75-75 40.5 0 75 33.439 75 75 0 40.783-33.562 75-75 75z" fill="#80bfff"/><path d="m474.616 386.895c-10.503 17.699-23.401 34.2-38.401 49.2s-31.501 27.9-49.2 38.099l-77.1-128.399c7.2-4.501 13.801-9.6 20.099-15.901 6-6 11.4-12.9 15.901-20.099z" fill="#b5dbff"/><path d="m201.915 165.795c-7.2 4.499-13.801 9.6-20.099 15.899-6 6-11.4 12.9-15.901 20.101l-128.401-77.1c10.201-17.701 23.101-34.2 38.101-49.2s31.5-27.9 49.2-38.101z" fill="#d5e8fe"/></g><path d="m330.014 181.694c-20.4-20.4-47.399-30.899-74.099-30.899v30c40.5 0 75 33.439 75 75 0 40.782-33.562 75-75 75v30c18.9 0 37.5-5.101 54-15 7.2-4.501 13.801-9.6 20.099-15.901 6-6 11.4-12.9 15.901-20.1 9.6-16.199 15-34.5 15-54 0-28.199-11.1-54.298-30.901-74.1z" fill="#69f"/></g></svg>